<?xml version="1.0"?>
<svg xmlns="http://www.w3.org/2000/svg" xmlns:xlink="http://www.w3.org/1999/xlink" xmlns:svgjs="http://svgjs.com/svgjs" version="1.1" width="512" height="512" x="0" y="0" viewBox="0 0 504.383 504.383" style="enable-background:new 0 0 512 512" xml:space="preserve" class=""><g><g xmlns="http://www.w3.org/2000/svg"><path d="m148.683 376.913 42.619-42.619c-4.17-2.733-8.095-5.904-11.702-9.511s-6.778-7.532-9.511-11.702l-42.619 42.619c4.116-24.775-3.36-51.1-22.472-70.213l-30.753-30.753-19.983 19.983c-31.452 31.452-31.452 82.446 0 113.898l20.147 20.147-74.409 74.408 21.213 21.213 74.409-74.409 20.147 20.147c31.452 31.452 82.446 31.452 113.898 0l19.983-19.983-30.753-30.753c-19.114-19.112-45.439-26.588-70.214-22.472z" fill="#4d8b55" data-original="#000000" style=""/><path d="m472.098 151.859c-11.137-11.137-24.611-18.502-38.842-22.126 34.12-11.07 58.797-43.101 58.797-80.911v-36.492h-36.492c-37.81 0-69.841 24.677-80.911 58.797-3.624-14.23-10.989-27.705-22.126-38.842l-32.285-32.285-20.979 20.978c-19.128 19.128-27.152 45.139-24.117 70.061 13.409 2.795 26.181 9.368 36.568 19.755 16.671 16.671 23.549 39.473 20.663 61.215 21.742-2.886 44.543 3.992 61.214 20.662 10.388 10.388 16.961 23.16 19.756 36.569 24.921 3.034 50.932-4.989 70.061-24.117l20.978-20.978z" fill="#4d8b55" data-original="#000000" style=""/><path d="m290.498 132.008c-16.725-16.726-43.939-16.725-60.664 0-16.725 16.726-16.725 43.939 0 60.664 16.726 16.725 43.939 16.725 60.665 0 16.724-16.725 16.724-43.939-.001-60.664z" fill="#4d8b55" data-original="#000000" style=""/><path d="m228.848 232.66c-10.986 0-21.968 4.18-30.332 12.543-8.102 8.102-12.564 18.875-12.564 30.332 0 11.458 4.462 22.23 12.564 30.332 8.102 8.103 18.874 12.564 30.332 12.564s22.23-4.462 30.332-12.564c16.725-16.725 16.725-43.939-.001-60.664-8.361-8.361-19.348-12.543-30.331-12.543z" fill="#4d8b55" data-original="#000000" style=""/><path d="m372.376 274.549c16.725-16.725 16.725-43.939 0-60.664-8.361-8.361-19.348-12.543-30.332-12.543-10.986 0-21.968 4.18-30.332 12.543-16.725 16.726-16.725 43.939 0 60.665 16.725 16.724 43.938 16.725 60.664-.001z" fill="#4d8b55" data-original="#000000" style=""/></g></g></svg>
